<mxfile host="app.diagrams.net" modified="2023-11-22T02:55:19.258Z" agent="Mozilla/5.0 (Macintosh; Intel Mac OS X 10_15_7) AppleWebKit/537.36 (KHTML, like Gecko) Chrome/119.0.0.0 Safari/537.36" etag="1VIs8CNAfvXCtOlaENq-" version="22.1.3" type="github">
  <diagram id="C5RBs43oDa-KdzZeNtuy" name="Page-1">
    <mxGraphModel dx="954" dy="1716" grid="1" gridSize="10" guides="1" tooltips="1" connect="1" arrows="1" fold="1" page="1" pageScale="1" pageWidth="827" pageHeight="1169" math="0" shadow="0">
      <root>
        <mxCell id="WIyWlLk6GJQsqaUBKTNV-0" />
        <mxCell id="WIyWlLk6GJQsqaUBKTNV-1" parent="WIyWlLk6GJQsqaUBKTNV-0" />
        <mxCell id="WIyWlLk6GJQsqaUBKTNV-3" value="登录" style="rounded=1;whiteSpace=wrap;html=1;fontSize=12;glass=0;strokeWidth=1;shadow=0;" parent="WIyWlLk6GJQsqaUBKTNV-1" vertex="1">
          <mxGeometry x="420" y="-50" width="120" height="60" as="geometry" />
        </mxCell>
        <mxCell id="7fsbqNJAy4cbmUeLIFOX-0" value="用户进件" style="rounded=1;whiteSpace=wrap;html=1;" vertex="1" parent="WIyWlLk6GJQsqaUBKTNV-1">
          <mxGeometry x="480" y="300" width="120" height="60" as="geometry" />
        </mxCell>
        <mxCell id="7fsbqNJAy4cbmUeLIFOX-1" value="工作信息" style="rounded=1;whiteSpace=wrap;html=1;" vertex="1" parent="WIyWlLk6GJQsqaUBKTNV-1">
          <mxGeometry x="360" y="490" width="120" height="60" as="geometry" />
        </mxCell>
        <mxCell id="7fsbqNJAy4cbmUeLIFOX-2" value="用户进件状态" style="rounded=1;whiteSpace=wrap;html=1;" vertex="1" parent="WIyWlLk6GJQsqaUBKTNV-1">
          <mxGeometry x="420" y="750" width="120" height="60" as="geometry" />
        </mxCell>
        <mxCell id="7fsbqNJAy4cbmUeLIFOX-3" value="提交借款（verify_status）" style="rounded=1;whiteSpace=wrap;html=1;" vertex="1" parent="WIyWlLk6GJQsqaUBKTNV-1">
          <mxGeometry x="420" y="850" width="120" height="60" as="geometry" />
        </mxCell>
        <mxCell id="7fsbqNJAy4cbmUeLIFOX-4" value="风控队列&lt;br&gt;校验身份证号队列" style="rounded=1;whiteSpace=wrap;html=1;" vertex="1" parent="WIyWlLk6GJQsqaUBKTNV-1">
          <mxGeometry x="210" y="970" width="120" height="60" as="geometry" />
        </mxCell>
        <mxCell id="7fsbqNJAy4cbmUeLIFOX-5" value="授信" style="rounded=1;whiteSpace=wrap;html=1;" vertex="1" parent="WIyWlLk6GJQsqaUBKTNV-1">
          <mxGeometry x="430" y="970" width="120" height="60" as="geometry" />
        </mxCell>
        <mxCell id="7fsbqNJAy4cbmUeLIFOX-6" value="发券" style="rounded=1;whiteSpace=wrap;html=1;" vertex="1" parent="WIyWlLk6GJQsqaUBKTNV-1">
          <mxGeometry x="650" y="970" width="120" height="60" as="geometry" />
        </mxCell>
        <mxCell id="7fsbqNJAy4cbmUeLIFOX-7" value="基本信息" style="rounded=1;whiteSpace=wrap;html=1;" vertex="1" parent="WIyWlLk6GJQsqaUBKTNV-1">
          <mxGeometry x="180" y="490" width="120" height="60" as="geometry" />
        </mxCell>
        <mxCell id="7fsbqNJAy4cbmUeLIFOX-8" value="ocr" style="rounded=1;whiteSpace=wrap;html=1;" vertex="1" parent="WIyWlLk6GJQsqaUBKTNV-1">
          <mxGeometry x="544" y="490" width="120" height="60" as="geometry" />
        </mxCell>
        <mxCell id="7fsbqNJAy4cbmUeLIFOX-9" value="活体" style="rounded=1;whiteSpace=wrap;html=1;" vertex="1" parent="WIyWlLk6GJQsqaUBKTNV-1">
          <mxGeometry x="710" y="490" width="120" height="60" as="geometry" />
        </mxCell>
        <mxCell id="7fsbqNJAy4cbmUeLIFOX-10" value="其他" style="rounded=1;whiteSpace=wrap;html=1;" vertex="1" parent="WIyWlLk6GJQsqaUBKTNV-1">
          <mxGeometry x="880" y="490" width="120" height="60" as="geometry" />
        </mxCell>
        <mxCell id="7fsbqNJAy4cbmUeLIFOX-11" value="发送验证码api/v2/sms_code" style="rounded=1;whiteSpace=wrap;html=1;" vertex="1" parent="WIyWlLk6GJQsqaUBKTNV-1">
          <mxGeometry x="280" y="-400" width="120" height="60" as="geometry" />
        </mxCell>
        <mxCell id="7fsbqNJAy4cbmUeLIFOX-12" value="登录&lt;br&gt;/api/v2/login" style="rounded=1;whiteSpace=wrap;html=1;" vertex="1" parent="WIyWlLk6GJQsqaUBKTNV-1">
          <mxGeometry x="550" y="-450" width="110" height="60" as="geometry" />
        </mxCell>
        <mxCell id="7fsbqNJAy4cbmUeLIFOX-22" style="edgeStyle=orthogonalEdgeStyle;rounded=0;orthogonalLoop=1;jettySize=auto;html=1;entryX=0.5;entryY=0;entryDx=0;entryDy=0;" edge="1" parent="WIyWlLk6GJQsqaUBKTNV-1" source="7fsbqNJAy4cbmUeLIFOX-13" target="7fsbqNJAy4cbmUeLIFOX-15">
          <mxGeometry relative="1" as="geometry" />
        </mxCell>
        <mxCell id="7fsbqNJAy4cbmUeLIFOX-13" value="&lt;pre style=&quot;font-family: &amp;quot;JetBrains Mono&amp;quot;, monospace; font-size: 9.8pt;&quot;&gt;&lt;font style=&quot;background-color: rgb(255, 247, 248);&quot; color=&quot;#09090a&quot;&gt;用户注销&lt;/font&gt;&lt;/pre&gt;&lt;pre style=&quot;font-family: &amp;quot;JetBrains Mono&amp;quot;, monospace; font-size: 9.8pt;&quot;&gt;&lt;font style=&quot;background-color: rgb(255, 247, 248);&quot; color=&quot;#09090a&quot;&gt;GetUserClose&lt;/font&gt;&lt;/pre&gt;" style="rounded=1;whiteSpace=wrap;html=1;strokeColor=#190033;" vertex="1" parent="WIyWlLk6GJQsqaUBKTNV-1">
          <mxGeometry x="750" y="-570" width="120" height="50" as="geometry" />
        </mxCell>
        <mxCell id="7fsbqNJAy4cbmUeLIFOX-21" value="" style="edgeStyle=orthogonalEdgeStyle;rounded=0;orthogonalLoop=1;jettySize=auto;html=1;" edge="1" parent="WIyWlLk6GJQsqaUBKTNV-1" source="7fsbqNJAy4cbmUeLIFOX-15" target="7fsbqNJAy4cbmUeLIFOX-20">
          <mxGeometry relative="1" as="geometry" />
        </mxCell>
        <mxCell id="7fsbqNJAy4cbmUeLIFOX-23" value="" style="edgeStyle=orthogonalEdgeStyle;rounded=0;orthogonalLoop=1;jettySize=auto;html=1;" edge="1" parent="WIyWlLk6GJQsqaUBKTNV-1" source="7fsbqNJAy4cbmUeLIFOX-15" target="7fsbqNJAy4cbmUeLIFOX-16">
          <mxGeometry relative="1" as="geometry" />
        </mxCell>
        <mxCell id="7fsbqNJAy4cbmUeLIFOX-15" value="userCenterService" style="rounded=1;whiteSpace=wrap;html=1;" vertex="1" parent="WIyWlLk6GJQsqaUBKTNV-1">
          <mxGeometry x="750" y="-480" width="120" height="60" as="geometry" />
        </mxCell>
        <mxCell id="7fsbqNJAy4cbmUeLIFOX-24" value="" style="edgeStyle=orthogonalEdgeStyle;rounded=0;orthogonalLoop=1;jettySize=auto;html=1;" edge="1" parent="WIyWlLk6GJQsqaUBKTNV-1" source="7fsbqNJAy4cbmUeLIFOX-16" target="7fsbqNJAy4cbmUeLIFOX-17">
          <mxGeometry relative="1" as="geometry" />
        </mxCell>
        <mxCell id="7fsbqNJAy4cbmUeLIFOX-16" value="一些日志" style="rounded=1;whiteSpace=wrap;html=1;" vertex="1" parent="WIyWlLk6GJQsqaUBKTNV-1">
          <mxGeometry x="750" y="-390" width="120" height="60" as="geometry" />
        </mxCell>
        <mxCell id="7fsbqNJAy4cbmUeLIFOX-19" value="" style="edgeStyle=orthogonalEdgeStyle;rounded=0;orthogonalLoop=1;jettySize=auto;html=1;" edge="1" parent="WIyWlLk6GJQsqaUBKTNV-1" source="7fsbqNJAy4cbmUeLIFOX-17" target="7fsbqNJAy4cbmUeLIFOX-18">
          <mxGeometry relative="1" as="geometry" />
        </mxCell>
        <mxCell id="7fsbqNJAy4cbmUeLIFOX-27" value="" style="edgeStyle=orthogonalEdgeStyle;rounded=0;orthogonalLoop=1;jettySize=auto;html=1;" edge="1" parent="WIyWlLk6GJQsqaUBKTNV-1" source="7fsbqNJAy4cbmUeLIFOX-17">
          <mxGeometry relative="1" as="geometry">
            <mxPoint x="810" y="-210" as="targetPoint" />
          </mxGeometry>
        </mxCell>
        <mxCell id="7fsbqNJAy4cbmUeLIFOX-17" value="productService" style="rounded=1;whiteSpace=wrap;html=1;" vertex="1" parent="WIyWlLk6GJQsqaUBKTNV-1">
          <mxGeometry x="750" y="-300" width="120" height="60" as="geometry" />
        </mxCell>
        <mxCell id="7fsbqNJAy4cbmUeLIFOX-18" value="productList" style="whiteSpace=wrap;html=1;rounded=1;" vertex="1" parent="WIyWlLk6GJQsqaUBKTNV-1">
          <mxGeometry x="950" y="-300" width="120" height="60" as="geometry" />
        </mxCell>
        <mxCell id="7fsbqNJAy4cbmUeLIFOX-20" value="loginStatus" style="whiteSpace=wrap;html=1;rounded=1;" vertex="1" parent="WIyWlLk6GJQsqaUBKTNV-1">
          <mxGeometry x="950" y="-480" width="120" height="60" as="geometry" />
        </mxCell>
        <mxCell id="7fsbqNJAy4cbmUeLIFOX-30" value="" style="edgeStyle=orthogonalEdgeStyle;rounded=0;orthogonalLoop=1;jettySize=auto;html=1;" edge="1" parent="WIyWlLk6GJQsqaUBKTNV-1" source="7fsbqNJAy4cbmUeLIFOX-28" target="7fsbqNJAy4cbmUeLIFOX-29">
          <mxGeometry relative="1" as="geometry" />
        </mxCell>
        <mxCell id="7fsbqNJAy4cbmUeLIFOX-28" value="&lt;pre style=&quot;border-color: var(--border-color); font-family: &amp;quot;JetBrains Mono&amp;quot;, monospace; font-size: 9.8pt;&quot;&gt;&lt;font style=&quot;border-color: var(--border-color);&quot; color=&quot;#0d0b09&quot;&gt;风控授信&lt;/font&gt;&lt;/pre&gt;&lt;pre style=&quot;border-color: var(--border-color); font-family: &amp;quot;JetBrains Mono&amp;quot;, monospace; font-size: 9.8pt;&quot;&gt;&lt;font style=&quot;border-color: var(--border-color); background-color: rgb(255, 255, 255);&quot; color=&quot;#0d0b09&quot;&gt;HartonoReCredit&lt;/font&gt;&lt;/pre&gt;" style="rounded=1;whiteSpace=wrap;html=1;" vertex="1" parent="WIyWlLk6GJQsqaUBKTNV-1">
          <mxGeometry x="750" y="-210" width="120" height="60" as="geometry" />
        </mxCell>
        <mxCell id="7fsbqNJAy4cbmUeLIFOX-32" value="" style="edgeStyle=orthogonalEdgeStyle;rounded=0;orthogonalLoop=1;jettySize=auto;html=1;" edge="1" parent="WIyWlLk6GJQsqaUBKTNV-1" source="7fsbqNJAy4cbmUeLIFOX-29" target="7fsbqNJAy4cbmUeLIFOX-31">
          <mxGeometry relative="1" as="geometry" />
        </mxCell>
        <mxCell id="7fsbqNJAy4cbmUeLIFOX-36" value="" style="edgeStyle=orthogonalEdgeStyle;rounded=0;orthogonalLoop=1;jettySize=auto;html=1;" edge="1" parent="WIyWlLk6GJQsqaUBKTNV-1" source="7fsbqNJAy4cbmUeLIFOX-29" target="7fsbqNJAy4cbmUeLIFOX-35">
          <mxGeometry relative="1" as="geometry" />
        </mxCell>
        <mxCell id="7fsbqNJAy4cbmUeLIFOX-29" value="一些数据上报" style="rounded=1;whiteSpace=wrap;html=1;" vertex="1" parent="WIyWlLk6GJQsqaUBKTNV-1">
          <mxGeometry x="750" y="-120" width="120" height="60" as="geometry" />
        </mxCell>
        <mxCell id="7fsbqNJAy4cbmUeLIFOX-31" value="设备信息，appflayer，归因" style="whiteSpace=wrap;html=1;rounded=1;" vertex="1" parent="WIyWlLk6GJQsqaUBKTNV-1">
          <mxGeometry x="950" y="-120" width="120" height="60" as="geometry" />
        </mxCell>
        <mxCell id="7fsbqNJAy4cbmUeLIFOX-38" value="" style="edgeStyle=orthogonalEdgeStyle;rounded=0;orthogonalLoop=1;jettySize=auto;html=1;" edge="1" parent="WIyWlLk6GJQsqaUBKTNV-1" source="7fsbqNJAy4cbmUeLIFOX-35" target="7fsbqNJAy4cbmUeLIFOX-37">
          <mxGeometry relative="1" as="geometry" />
        </mxCell>
        <mxCell id="7fsbqNJAy4cbmUeLIFOX-35" value="一些活动&lt;br&gt;activityService" style="whiteSpace=wrap;html=1;rounded=1;" vertex="1" parent="WIyWlLk6GJQsqaUBKTNV-1">
          <mxGeometry x="750" y="-30" width="120" height="60" as="geometry" />
        </mxCell>
        <mxCell id="7fsbqNJAy4cbmUeLIFOX-37" value="活动下游通知和处理" style="whiteSpace=wrap;html=1;rounded=1;" vertex="1" parent="WIyWlLk6GJQsqaUBKTNV-1">
          <mxGeometry x="950" y="-30" width="120" height="60" as="geometry" />
        </mxCell>
      </root>
    </mxGraphModel>
  </diagram>
</mxfile>
